<?xml version="1.0" standalone="no"?>
<!DOCTYPE svg PUBLIC "-//W3C//DTD SVG 20010904//EN"
 "http://www.w3.org/TR/2001/REC-SVG-20010904/DTD/svg10.dtd">
<svg version="1.0" xmlns="http://www.w3.org/2000/svg"
 width="1668.000000pt" height="1668.000000pt" viewBox="0 0 1668.000000 1668.000000"
 preserveAspectRatio="xMidYMid meet">
<metadata>
Created by potrace 1.14, written by Peter Selinger 2001-2017
</metadata>
<g transform="translate(0.000000,1668.000000) scale(0.100000,-0.100000)"
fill="#000000" stroke="none">
<path d="M8300 16669 c-172 -23 -225 -33 -347 -65 -361 -94 -712 -281 -1013
-538 -180 -154 -189 -163 -270 -251 -40 -44 -96 -105 -124 -135 -28 -30 -98
-114 -156 -186 -164 -204 -380 -426 -479 -491 -135 -90 -164 -96 -436 -88
-337 10 -497 -12 -738 -99 -237 -86 -277 -131 -238 -268 12 -40 40 -122 62
-183 54 -144 87 -252 99 -331 13 -77 4 -121 -70 -344 -28 -85 -53 -163 -55
-172 -2 -9 -21 -72 -43 -140 -22 -68 -58 -199 -81 -293 -23 -93 -44 -181 -48
-195 -8 -31 -8 -33 -27 -145 -61 -357 -78 -569 -76 -970 0 -143 7 -334 16
-425 34 -382 46 -495 70 -675 43 -333 52 -413 84 -775 17 -195 33 -365 36
-377 3 -15 22 -32 57 -49 28 -15 65 -35 80 -46 16 -11 29 -19 30 -17 2 2 9 17
17 33 16 31 45 46 91 46 36 0 42 -5 99 -90 86 -128 163 -222 194 -241 36 -21
26 16 146 -535 59 -271 77 -333 107 -366 21 -23 112 -24 213 -3 95 20 144 46
161 87 34 81 -5 546 -86 1023 -61 359 -62 391 -23 469 11 21 21 48 24 60 2 11
8 30 13 41 19 37 52 139 67 203 7 35 19 72 24 82 25 47 122 297 122 313 0 9 2
17 6 17 4 0 8 8 9 18 1 9 7 44 13 77 19 114 41 281 55 430 31 320 81 587 150
815 57 186 62 197 127 307 94 160 351 389 523 467 160 73 439 151 645 181 63
9 118 19 122 21 3 2 399 5 880 5 480 0 911 5 958 10 196 21 338 32 388 31 58
-1 222 -37 264 -58 14 -8 64 -22 110 -33 45 -11 135 -37 198 -59 149 -51 273
-89 334 -102 49 -11 99 -32 126 -55 8 -7 66 -31 129 -55 106 -39 135 -53 251
-118 25 -14 61 -33 80 -43 47 -25 70 -44 70 -58 0 -6 9 -11 19 -11 11 0 21 -3
23 -7 4 -10 53 -39 97 -59 30 -14 35 -14 50 0 18 16 18 70 2 111 -5 11 -15 55
-23 98 l-15 77 34 0 c19 0 48 8 65 18 40 23 78 99 78 157 0 25 2 45 5 45 7 0
131 -65 180 -94 22 -13 39 -29 38 -35 -2 -5 4 -8 13 -4 9 3 14 0 12 -8 -2 -8
3 -13 10 -12 6 2 12 -2 12 -8 0 -18 111 -119 132 -119 10 0 29 9 41 20 19 18
22 31 22 109 0 57 4 87 10 83 6 -3 5 1 -1 9 -13 15 -8 32 19 69 l18 25 57 -61
c31 -34 72 -69 90 -78 17 -9 32 -19 32 -22 0 -3 -6 -2 -12 1 -7 4 -5 0 4 -8
10 -8 15 -17 12 -20 -4 -3 3 -18 13 -34 18 -26 95 -180 114 -228 13 -33 71
-209 74 -226 2 -8 11 -40 20 -70 9 -30 19 -63 21 -74 2 -11 13 -54 25 -95 23
-79 40 -167 41 -212 1 -15 4 -25 8 -23 4 3 7 -23 5 -57 -1 -38 1 -55 6 -43 4
11 8 16 9 10 1 -5 3 -21 6 -34 2 -13 -1 -30 -7 -38 -10 -11 -9 -12 5 -7 18 7
17 9 17 -111 0 -38 7 -96 15 -127 8 -32 12 -69 8 -84 -4 -14 -1 -43 6 -64 10
-29 10 -49 2 -82 -7 -27 -8 -44 -2 -46 6 -2 10 -8 10 -13 0 -6 -4 -7 -10 -4
-5 3 -10 1 -10 -4 0 -6 5 -11 12 -11 9 0 9 -3 0 -12 -7 -7 -12 -18 -12 -26 0
-12 2 -12 16 -1 15 12 16 11 9 -10 -11 -37 -13 -111 -3 -117 5 -3 3 -12 -3
-21 -10 -12 -10 -16 1 -23 12 -7 11 -11 -1 -26 -13 -15 -12 -16 11 -10 16 5
20 4 12 -2 -9 -6 -11 -29 -6 -88 3 -43 8 -110 10 -149 3 -67 20 -241 30 -315
2 -19 5 -51 6 -70 1 -19 6 -38 12 -42 8 -6 7 -10 -1 -16 -10 -6 -10 -13 0 -32
7 -15 12 -52 10 -90 -4 -102 -4 -114 6 -120 12 -7 31 -118 31 -180 0 -25 6
-65 13 -90 8 -25 13 -61 12 -80 -1 -19 1 -39 5 -45 11 -16 19 -55 10 -50 -5 3
-8 -15 -7 -40 1 -25 7 -45 13 -45 6 0 16 -40 23 -92 10 -84 22 -171 50 -383 5
-38 8 -72 5 -76 -2 -4 3 -25 10 -47 11 -31 12 -42 3 -46 -9 -3 -9 -7 -1 -13 6
-4 11 -15 11 -23 1 -8 6 -69 13 -135 11 -108 7 -489 -6 -590 -2 -16 -6 -64
-10 -105 -4 -41 -10 -77 -13 -80 -8 -6 -31 -95 -31 -119 0 -11 -6 -26 -14 -33
-7 -8 -16 -32 -19 -54 -7 -53 -39 -168 -48 -174 -3 -3 -7 -16 -7 -30 0 -14 -9
-47 -21 -72 -11 -26 -21 -52 -21 -58 0 -6 -7 -13 -15 -16 -8 -4 -15 -14 -15
-24 0 -10 -7 -23 -15 -30 -8 -7 -18 -30 -21 -52 -4 -23 -14 -43 -25 -49 -11
-5 -19 -14 -19 -20 0 -6 5 -7 10 -4 5 3 10 1 10 -4 0 -6 -4 -11 -10 -11 -5 0
-10 -11 -10 -25 0 -14 -5 -25 -10 -25 -6 0 -23 -26 -38 -57 -16 -32 -33 -67
-39 -78 -5 -11 -19 -38 -29 -60 -10 -22 -28 -49 -40 -60 -11 -11 -31 -40 -43
-65 -30 -61 -62 -113 -84 -134 -9 -10 -15 -22 -11 -27 3 -5 -2 -12 -10 -15 -9
-3 -16 -12 -16 -20 0 -8 -4 -14 -8 -14 -5 0 -14 -12 -21 -26 -10 -23 -59 -90
-88 -122 -7 -7 -13 -20 -13 -28 0 -8 -7 -14 -15 -14 -9 0 -21 -12 -28 -27 -6
-15 -25 -41 -42 -58 -30 -32 -162 -194 -180 -223 -5 -8 -41 -48 -80 -87 -38
-39 -86 -92 -105 -118 -19 -25 -39 -46 -43 -47 -8 0 -97 -89 -97 -96 0 -1 -45
-48 -99 -103 -62 -63 -107 -101 -120 -101 -12 0 -21 -6 -21 -13 0 -8 -18 -20
-40 -27 -22 -7 -40 -18 -40 -24 -1 -14 -164 -94 -210 -103 -28 -5 -31 -8 -15
-14 20 -7 20 -8 0 -8 -11 -1 -72 -20 -135 -42 -141 -51 -206 -69 -242 -69 -16
0 -36 -4 -46 -9 -55 -30 -264 -76 -392 -86 -41 -3 -111 -12 -155 -20 -100 -18
-350 -35 -503 -34 -153 1 -369 23 -387 40 -5 5 -30 9 -55 9 -30 0 -57 7 -80
23 -19 12 -89 40 -155 62 -66 22 -122 43 -125 47 -3 4 -23 14 -43 23 -21 8
-46 24 -57 35 -14 14 -28 18 -44 14 -17 -4 -31 1 -46 16 -12 12 -48 35 -79 50
-32 16 -63 36 -71 44 -7 9 -19 16 -28 16 -9 0 -25 9 -37 20 -12 11 -32 23 -44
25 -13 2 -34 16 -47 30 -12 14 -28 25 -34 25 -5 0 -10 7 -10 16 0 11 -6 15
-20 11 -11 -3 -30 3 -42 13 -13 9 -38 25 -57 35 -19 9 -46 28 -60 42 -14 13
-39 27 -54 30 -16 3 -34 14 -40 24 -7 11 -18 19 -25 19 -14 0 -95 50 -100 63
-2 4 -10 7 -18 7 -9 0 -12 4 -9 10 4 6 -1 7 -11 3 -10 -4 -22 0 -30 11 -7 10
-27 25 -46 35 -18 9 -32 22 -31 28 1 6 -16 13 -37 17 -31 5 -40 11 -40 26 0
13 -7 20 -20 20 -11 0 -20 4 -20 8 0 4 -18 19 -40 32 -22 14 -42 33 -45 43 -4
9 -16 17 -27 17 -21 0 -76 36 -112 72 -10 11 -24 17 -32 14 -15 -6 -57 28 -47
37 8 9 -58 39 -72 33 -9 -3 -25 12 -42 40 -19 29 -35 44 -49 44 -12 0 -27 7
-34 15 -7 8 -21 15 -32 15 -10 0 -29 11 -42 25 -13 14 -30 25 -38 25 -9 0 -42
26 -75 58 -79 76 -105 96 -142 112 -22 9 -31 19 -31 36 0 15 -6 24 -16 24 -9
0 -36 20 -61 45 -24 25 -53 45 -63 45 -11 0 -20 7 -20 15 0 18 -47 65 -65 65
-8 0 -15 7 -15 15 0 21 -48 65 -71 65 -13 0 -18 -4 -13 -12 4 -8 3 -10 -2 -5
-5 5 -9 14 -9 20 0 6 -14 21 -32 32 -18 11 -32 26 -33 33 0 6 -6 12 -14 12 -8
0 -16 7 -20 15 -3 8 -23 22 -46 31 -40 16 -50 29 -28 36 9 3 9 6 0 12 -7 4
-12 2 -12 -3 0 -25 -18 -8 -24 22 -5 25 -9 29 -17 17 -8 -13 -12 -12 -28 8
-11 12 -26 22 -35 22 -9 0 -16 8 -16 18 0 21 -42 62 -63 62 -8 0 -17 7 -20 14
-3 8 -22 18 -41 22 -25 4 -36 12 -36 24 0 24 -68 94 -94 95 -59 3 -66 6 -66
23 0 10 -15 23 -40 34 -22 9 -40 23 -40 31 0 10 -23 21 -65 32 -46 13 -64 22
-61 32 4 9 -3 13 -20 13 -20 0 -29 8 -42 40 -9 22 -22 40 -29 40 -7 0 -16 6
-20 14 -7 12 -12 11 -31 -4 -18 -15 -25 -33 -29 -75 -3 -31 -10 -58 -14 -61
-5 -3 -5 -13 0 -22 4 -9 5 -46 1 -81 -7 -58 -12 -67 -53 -105 -25 -22 -64 -52
-87 -66 -22 -14 -56 -37 -75 -51 -56 -43 -177 -59 -275 -36 -60 14 -100 29
-100 37 0 6 -7 10 -16 10 -8 0 -12 4 -9 10 3 5 0 7 -8 4 -8 -3 -17 2 -21 11
-3 9 -9 14 -14 11 -4 -2 -28 11 -52 30 -25 19 -58 44 -74 57 -38 28 -59 49
-124 124 -69 78 -83 99 -74 107 3 4 -2 4 -12 0 -14 -5 -17 -4 -12 4 4 7 2 12
-3 12 -6 0 -11 7 -11 16 0 8 -4 13 -9 10 -8 -6 -25 30 -22 47 1 5 -3 6 -8 3
-5 -3 -16 9 -25 27 -8 17 -31 50 -50 71 -19 22 -33 43 -30 48 3 4 0 8 -5 8 -6
0 -11 4 -11 9 0 10 -60 112 -71 121 -3 3 -26 41 -49 85 -24 44 -46 82 -49 85
-15 13 -169 328 -164 334 4 3 1 6 -5 6 -7 0 -12 4 -12 9 0 17 -20 64 -25 59
-14 -14 148 -342 268 -543 43 -71 84 -139 90 -150 121 -205 255 -382 386 -508
116 -111 173 -147 287 -182 131 -41 177 -36 319 34 66 32 131 62 144 66 49 15
107 -14 219 -110 152 -131 309 -271 442 -395 204 -191 393 -352 587 -498 151
-114 600 -400 827 -527 l68 -38 -7 -96 c-4 -53 -11 -103 -16 -112 -6 -12 -30
-18 -86 -23 -91 -7 -219 -36 -284 -64 -63 -27 -108 -69 -197 -182 -41 -52
-117 -136 -168 -186 -108 -105 -124 -135 -96 -173 55 -74 576 -486 937 -741
618 -437 1029 -677 1585 -925 107 -48 275 -125 372 -172 161 -77 181 -84 208
-75 32 12 266 156 428 264 226 151 489 382 719 630 49 54 93 95 98 90 5 -4 5
-1 1 6 -8 14 31 55 44 47 4 -2 16 5 28 15 12 11 28 20 36 20 13 0 99 52 116
70 12 13 107 68 128 75 12 3 58 26 102 51 44 24 84 44 88 44 4 0 36 20 72 45
36 25 71 45 78 45 6 0 12 4 12 9 0 5 21 20 48 34 26 13 63 34 82 45 19 12 55
31 80 43 25 12 52 27 60 34 8 7 26 16 40 20 14 4 27 10 30 14 10 13 69 41 85
41 9 0 14 4 10 9 -3 6 15 8 45 6 29 -2 50 0 50 6 0 6 -4 7 -10 4 -5 -3 -10 -2
-10 3 0 5 -89 41 -197 80 -109 39 -279 100 -378 136 -299 107 -290 102 -305
144 -8 24 -51 74 -118 141 l-105 104 70 32 c321 148 645 444 1044 950 477 606
703 1066 783 1595 20 132 36 321 36 425 0 60 8 105 30 179 33 110 40 166 8 71
-11 -33 -20 -66 -20 -72 -2 -23 -18 -14 -19 10 -2 81 -30 391 -44 487 -8 52
-28 205 -45 339 -17 134 -33 247 -35 251 -2 3 -7 106 -10 228 -3 122 -8 238
-10 257 -3 19 0 35 5 35 6 0 10 10 10 23 0 12 9 29 20 37 11 8 20 20 20 28 0
7 7 15 15 18 8 3 23 21 34 40 11 19 31 38 43 43 13 5 34 21 47 35 14 14 31 26
38 26 8 0 16 8 20 18 3 9 28 38 55 64 51 49 66 47 56 -7 -3 -14 -1 -22 5 -18
9 6 5 103 -10 208 -5 39 -8 43 -29 39 -13 -2 -24 0 -24 6 0 5 -6 9 -12 8 -19
-4 -158 -149 -158 -165 0 -7 -4 -13 -8 -13 -11 0 -118 -216 -135 -270 -2 -8
-8 12 -12 45 -4 33 -15 119 -24 191 l-17 132 30 57 c30 56 31 63 34 219 2 88
-1 247 -8 351 -7 105 -16 312 -20 460 -14 469 -117 1287 -205 1635 l-37 145
16 165 c31 317 15 577 -54 848 -34 136 -120 374 -167 466 -15 28 -14 30 12 49
40 30 48 61 30 116 -8 25 -26 60 -39 76 -49 60 -272 291 -321 333 -27 23 -72
63 -100 90 -27 26 -72 63 -100 82 -27 19 -56 40 -63 47 -7 7 -49 36 -95 66
-135 89 -123 82 -277 162 -30 16 -59 30 -65 31 -5 1 -57 21 -115 44 -58 23
-152 55 -210 71 -58 16 -127 36 -155 44 -93 27 -493 89 -745 115 -58 6 -125
13 -150 15 -25 3 -139 9 -255 15 -349 16 -617 57 -741 112 -35 15 -43 24 -54
63 -14 50 -11 88 26 303 40 238 32 283 -59 316 -94 35 -446 56 -597 35z m4441
-6556 c-12 -20 -14 -14 -5 12 4 9 9 14 11 11 3 -2 0 -13 -6 -23z m-2628 -5280
c-7 -2 -19 -2 -25 0 -7 3 -2 5 12 5 14 0 19 -2 13 -5z m-1873 -772 c0 -8 26
-20 55 -26 6 -1 26 -9 45 -18 19 -8 58 -18 85 -22 28 -4 68 -17 90 -28 22 -11
54 -24 70 -28 34 -8 80 -24 147 -51 26 -10 56 -18 67 -18 12 0 21 -7 21 -15 0
-9 9 -15 21 -15 22 0 89 -16 124 -30 67 -27 203 -65 281 -79 34 -6 88 -20 120
-30 60 -19 120 -30 434 -76 96 -14 188 -29 204 -32 18 -3 26 -1 22 5 -4 6 2
10 13 9 27 -2 13 -19 -79 -99 -142 -125 -292 -228 -332 -228 -20 0 -106 38
-113 50 -4 6 -11 8 -16 5 -5 -4 -9 -1 -9 5 0 6 -4 8 -10 5 -5 -3 -10 -1 -10 5
0 6 -4 8 -10 5 -5 -3 -10 -1 -10 5 0 6 -4 9 -9 6 -5 -4 -11 -2 -13 2 -1 5 -52
33 -113 62 -60 29 -112 56 -115 60 -3 4 -32 21 -65 37 -151 75 -764 431 -842
489 -17 13 -36 24 -41 24 -5 0 -15 7 -22 15 -9 10 -9 15 -1 15 6 0 11 -4 11
-9z"/>
<path d="M12600 11434 c0 -8 5 -12 10 -9 6 4 8 11 5 16 -9 14 -15 11 -15 -7z"/>
<path d="M11485 11366 c-134 -31 -236 -66 -358 -126 -125 -60 -192 -110 -234
-175 -31 -47 -33 -55 -33 -143 0 -74 5 -110 25 -169 24 -71 55 -128 80 -145
26 -19 89 -7 144 26 200 120 311 171 448 206 187 46 394 10 696 -123 89 -39
128 -38 159 4 46 62 49 159 7 275 -26 71 -42 97 -91 149 -84 91 -156 133 -323
190 -165 56 -357 68 -520 31z"/>
<path d="M12630 11038 c0 -32 3 -39 10 -28 13 20 13 70 0 70 -5 0 -10 -19 -10
-42z"/>
<path d="M8180 11009 c-63 -4 -137 -12 -165 -18 -27 -5 -75 -14 -105 -20 -73
-13 -275 -74 -346 -106 -31 -14 -60 -25 -65 -25 -4 0 -41 -15 -81 -34 -40 -18
-103 -47 -140 -64 -135 -61 -318 -187 -380 -261 -14 -16 -40 -60 -58 -96 -27
-55 -31 -74 -27 -110 15 -107 98 -179 207 -178 56 1 98 15 251 87 160 74 210
95 369 153 195 72 248 88 355 108 93 17 306 21 415 6 82 -11 270 -53 338 -77
56 -18 123 -18 164 2 31 15 78 74 111 139 52 103 58 269 12 329 -33 44 -54 56
-140 89 -163 61 -459 93 -715 76z"/>
<path d="M11595 10309 c-27 -5 -59 -14 -70 -19 -11 -5 -38 -14 -60 -21 -22 -6
-72 -27 -112 -45 -40 -19 -75 -34 -78 -34 -8 0 -87 -52 -110 -73 -10 -10 -25
-15 -32 -13 -7 3 -12 2 -12 -2 3 -19 -2 -25 -11 -12 -8 13 -10 13 -10 -2 0
-24 -56 -61 -83 -55 -21 6 -21 5 -3 -8 19 -14 19 -15 0 -21 -24 -9 -55 -40
-47 -48 4 -3 -6 -6 -20 -6 -15 0 -27 -4 -27 -10 0 -5 7 -6 17 -3 11 4 14 3 9
-5 -4 -7 -16 -12 -27 -12 -20 0 -40 -35 -32 -56 2 -6 -3 -14 -11 -17 -9 -4
-16 -14 -17 -24 0 -16 -2 -16 -10 2 -8 17 -9 17 -6 -7 3 -19 0 -25 -10 -21 -9
4 -11 0 -7 -10 6 -16 -24 -77 -38 -77 -4 0 -7 -3 -7 -7 1 -5 1 -15 -1 -23 -1
-11 -4 -9 -10 5 -8 19 -9 19 -9 -2 -1 -15 -7 -23 -18 -24 -15 0 -15 -2 2 -9
11 -5 14 -9 8 -9 -7 -1 -13 -6 -13 -12 0 -5 4 -7 10 -4 6 3 7 -1 4 -9 -3 -9
-10 -14 -14 -11 -5 3 -11 1 -14 -4 -4 -5 -1 -13 5 -17 8 -5 9 -3 4 6 -5 8 -4
11 3 6 7 -4 6 -17 -3 -44 -26 -75 -35 -109 -35 -129 0 -12 -6 -24 -12 -26 -10
-4 -10 -6 0 -6 7 -1 10 -6 7 -11 -4 -6 -9 -54 -11 -107 -3 -53 -6 -99 -9 -102
-2 -4 0 -13 6 -21 6 -11 9 -5 9 20 0 87 76 400 97 400 3 0 3 -19 0 -42 -9 -64
11 -232 35 -296 68 -182 253 -362 371 -362 104 0 367 45 367 63 0 5 -7 7 -15
3 -10 -3 -15 1 -15 11 0 9 -10 27 -22 40 -18 20 -19 23 -5 23 20 0 23 16 5 23
-8 3 -6 6 5 6 9 1 17 6 17 11 0 6 10 15 23 20 12 5 62 45 110 89 94 87 109 92
164 52 26 -18 25 -54 -1 -107 -22 -44 -125 -138 -166 -152 l-35 -11 40 6 c92
12 113 22 169 84 109 121 159 256 159 429 0 124 -19 204 -71 304 -101 193
-304 319 -515 320 -82 1 -86 2 -57 14 115 47 348 60 480 28 169 -42 345 -155
446 -288 53 -70 125 -201 144 -263 17 -56 33 -69 28 -23 -5 47 8 39 22 -13 7
-23 16 -39 23 -37 7 2 25 42 40 87 26 76 27 89 18 147 -20 132 -123 297 -246
397 -76 61 -216 130 -320 158 -92 24 -307 34 -390 18z m-400 -521 c31 -24 55
-74 55 -113 0 -40 -37 -103 -72 -121 -95 -49 -199 23 -185 128 6 43 48 105 81
118 39 16 92 11 121 -12z"/>
<path d="M12721 9924 c0 -11 3 -14 6 -6 3 7 2 16 -1 19 -3 4 -6 -2 -5 -13z"/>
<path d="M8026 9919 c-367 -39 -760 -248 -925 -493 -130 -192 -162 -335 -102
-454 16 -31 39 -68 52 -81 l23 -24 12 69 c13 76 65 211 114 294 166 282 449
468 793 521 109 17 322 6 412 -20 177 -52 300 -123 421 -246 44 -45 95 -107
113 -138 19 -33 37 -54 43 -51 7 4 8 2 4 -4 -4 -6 4 -33 17 -59 13 -26 30 -65
36 -86 7 -20 16 -35 21 -32 4 3 6 -5 2 -17 -3 -11 -1 -19 4 -16 5 4 9 -6 10
-20 0 -15 3 -38 7 -52 3 -14 6 -41 8 -60 l2 -35 7 40 7 40 2 -39 c2 -64 21
-29 30 55 21 199 -30 383 -152 544 -156 206 -400 324 -752 365 -99 11 -96 11
-209 -1z"/>
<path d="M10800 9770 c0 -5 5 -10 11 -10 5 0 7 5 4 10 -3 6 -8 10 -11 10 -2 0
-4 -4 -4 -10z"/>
<path d="M8010 9714 c-131 -16 -257 -80 -360 -183 -64 -64 -86 -95 -123 -172
-56 -117 -72 -200 -63 -328 10 -156 65 -283 173 -399 52 -57 63 -64 113 -73
88 -15 486 -24 494 -10 4 6 3 11 -3 11 -6 0 -8 7 -5 15 4 10 0 15 -11 15 -30
0 -15 59 20 78 17 9 32 19 35 22 3 3 22 18 43 33 21 16 61 51 88 78 63 62 94
70 132 34 32 -31 34 -55 7 -110 -37 -76 -122 -145 -220 -178 -8 -3 9 -6 38 -6
75 -1 108 16 184 98 72 76 123 165 153 266 27 91 25 279 -4 365 -38 109 -82
181 -161 261 -80 81 -164 132 -271 163 -58 16 -198 27 -259 20z m-130 -289
c46 -24 70 -62 70 -112 0 -83 -60 -153 -131 -153 -81 0 -139 55 -139 132 0
106 110 180 200 133z"/>
<path d="M13212 9640 c0 -14 2 -19 5 -12 2 6 2 18 0 25 -3 6 -5 1 -5 -13z"/>
<path d="M13201 9464 c0 -11 3 -14 6 -6 3 7 2 16 -1 19 -3 4 -6 -2 -5 -13z"/>
<path d="M13192 9355 c0 -16 2 -22 5 -12 2 9 2 23 0 30 -3 6 -5 -1 -5 -18z"/>
<path d="M10651 9324 c0 -11 3 -14 6 -6 3 7 2 16 -1 19 -3 4 -6 -2 -5 -13z"/>
<path d="M13183 9255 c0 -22 2 -30 4 -17 2 12 2 30 0 40 -3 9 -5 -1 -4 -23z"/>
<path d="M13169 9158 c-3 -22 -1 -34 4 -29 5 5 7 21 5 37 -3 27 -4 26 -9 -8z"/>
<path d="M12831 9124 c0 -11 3 -14 6 -6 3 7 2 16 -1 19 -3 4 -6 -2 -5 -13z"/>
<path d="M13162 9080 c0 -19 2 -27 5 -17 2 9 2 25 0 35 -3 9 -5 1 -5 -18z"/>
<path d="M4095 9077 c-62 -38 -52 -87 25 -116 19 -8 49 -19 65 -26 17 -7 50
-20 75 -30 79 -30 214 -98 235 -118 11 -10 36 -27 55 -38 19 -10 58 -39 85
-64 28 -24 58 -45 68 -45 10 0 17 -8 17 -20 0 -12 6 -20 13 -19 26 3 37 -2 37
-16 0 -8 7 -15 15 -15 8 0 15 -4 15 -10 0 -5 5 -10 10 -10 6 0 10 4 10 10 0 9
-55 134 -71 160 -5 8 -13 24 -18 35 -24 54 -215 210 -303 248 -16 6 -28 15
-28 19 0 4 -6 8 -14 8 -8 0 -27 6 -43 14 -72 37 -105 46 -165 45 -34 0 -72 -6
-83 -12z"/>
<path d="M13151 8994 c0 -11 3 -14 6 -6 3 7 2 16 -1 19 -3 4 -6 -2 -5 -13z"/>
<path d="M13142 8900 c0 -14 2 -19 5 -12 2 6 2 18 0 25 -3 6 -5 1 -5 -13z"/>
<path d="M12584 8885 c-19 -77 41 -198 90 -179 34 13 29 112 -8 167 -29 43
-73 49 -82 12z"/>
<path d="M3671 8864 c0 -11 3 -14 6 -6 3 7 2 16 -1 19 -3 4 -6 -2 -5 -13z"/>
<path d="M3672 8770 c0 -19 2 -27 5 -17 2 9 2 25 0 35 -3 9 -5 1 -5 -18z"/>
<path d="M13111 8654 c0 -11 3 -14 6 -6 3 7 2 16 -1 19 -3 4 -6 -2 -5 -13z"/>
<path d="M3691 8584 c0 -11 3 -14 6 -6 3 7 2 16 -1 19 -3 4 -6 -2 -5 -13z"/>
<path d="M3702 8540 c0 -24 25 -115 27 -95 0 6 -6 35 -14 65 -7 30 -13 44 -13
30z"/>
<path d="M3731 8414 c0 -11 3 -14 6 -6 3 7 2 16 -1 19 -3 4 -6 -2 -5 -13z"/>
<path d="M3750 8353 c0 -18 20 -66 25 -61 3 3 -1 20 -9 39 -9 19 -15 29 -16
22z"/>
<path d="M3788 8239 c9 -23 18 -37 20 -31 3 10 -24 72 -32 72 -3 0 3 -19 12
-41z"/>
<path d="M10912 7820 c0 -14 2 -19 5 -12 2 6 2 18 0 25 -3 6 -5 1 -5 -13z"/>
<path d="M10916 7728 c-15 -116 -48 -173 -141 -245 -109 -84 -227 -122 -400
-130 -172 -8 -261 9 -390 75 -27 14 -62 33 -77 41 -56 32 -87 -33 -52 -107 27
-58 87 -132 106 -132 9 0 20 -5 23 -11 17 -26 138 -57 255 -65 113 -7 221 10
337 56 43 16 83 30 89 30 6 0 20 8 32 18 11 9 46 37 76 61 31 24 56 47 56 51
0 4 11 20 25 36 40 46 67 145 73 267 5 113 -1 142 -12 55z"/>
<path d="M5360 7400 c0 -32 1 -33 17 -17 16 16 16 18 0 34 -16 16 -17 15 -17
-17z"/>
<path d="M11463 7019 c-28 -28 -299 -161 -393 -193 -25 -8 -81 -29 -125 -47
-44 -17 -93 -32 -110 -33 -16 0 -32 -4 -35 -7 -8 -10 -175 -49 -209 -49 -17 0
-31 -4 -31 -9 0 -5 -19 -11 -42 -14 -24 -3 -86 -12 -138 -20 -112 -19 -156
-25 -270 -37 -47 -5 -112 -14 -145 -20 -115 -22 -350 -27 -545 -10 -69 6 -150
13 -180 15 -53 4 -211 23 -370 44 -41 6 -97 10 -125 10 l-50 0 45 -15 c102
-32 367 -95 482 -113 174 -29 311 -40 561 -48 121 -3 212 -10 205 -14 -7 -5
-8 -9 -3 -9 6 0 15 4 21 10 5 5 42 12 81 14 132 8 217 17 318 33 55 8 115 15
133 14 17 0 32 4 32 10 0 6 9 9 20 6 12 -3 18 -1 14 5 -4 5 4 9 17 7 13 -1 31
1 39 4 44 17 138 48 155 51 11 1 31 8 45 13 207 87 322 153 472 272 152 120
175 140 158 141 -9 0 -21 -5 -27 -11z"/>
<path d="M14740 1920 c6 -11 13 -20 16 -20 2 0 0 9 -6 20 -6 11 -13 20 -16 20
-2 0 0 -9 6 -20z"/>
<path d="M11885 1795 c-70 -11 -112 -24 -200 -60 -11 -5 -22 -9 -25 -9 -18 -4
-90 -51 -90 -60 0 -5 -3 -6 -7 -3 -20 21 -194 -155 -242 -245 -67 -125 -65
-119 -50 -129 11 -7 11 -9 -2 -9 -16 0 -38 -57 -68 -175 -13 -49 -13 -94 -1
-55 7 21 8 22 9 5 1 -12 -4 -26 -11 -33 -6 -6 -12 -26 -13 -44 -2 -18 -6 -41
-10 -50 -4 -10 -4 -39 -1 -65 4 -27 6 -74 6 -105 -2 -94 44 -323 62 -312 7 4
8 2 4 -5 -17 -26 96 -273 187 -408 l22 -33 696 0 695 0 22 45 c34 70 69 228
81 360 31 361 -64 771 -237 1026 -138 206 -369 343 -618 369 -105 11 -106 11
-209 -5z m-381 -214 c3 -5 -1 -11 -9 -14 -9 -4 -12 -1 -8 9 6 16 10 17 17 5z
m-76 -84 c-7 -14 -13 -17 -16 -9 -2 6 -9 9 -15 5 -7 -3 -4 3 7 15 23 27 40 19
24 -11z m-14 -68 c-13 -15 -20 -16 -31 -8 -11 10 -11 15 3 30 13 15 20 16 31
8 11 -10 11 -15 -3 -30z m-32 -29 c6 0 6 -6 -2 -15 -7 -8 -17 -12 -22 -9 -6 4
-7 -2 -3 -17 6 -20 5 -22 -6 -11 -11 10 -11 17 -2 32 7 10 9 20 5 23 -4 2 -1
2 6 0 8 -1 18 -3 24 -3z m-56 -26 c-4 -10 1 -26 11 -37 13 -14 14 -19 4 -15
-21 6 -35 33 -28 52 4 9 9 16 13 16 3 0 3 -7 0 -16z m-26 -176 c0 -38 -21 -54
-34 -25 -3 6 -3 1 1 -13 5 -21 4 -23 -9 -13 -8 7 -19 9 -23 5 -5 -4 -5 1 -2
11 4 10 7 26 7 35 0 15 2 15 10 2 6 -9 10 -10 10 -3 0 6 3 19 7 29 4 12 3 15
-5 10 -8 -5 -10 -2 -6 8 5 12 9 13 25 3 13 -8 19 -23 19 -49z m-51 -100 c0
-13 -3 -17 -6 -10 -4 10 -8 10 -19 1 -11 -9 -14 -8 -14 4 0 14 13 24 33 26 4
1 7 -9 6 -21z m-5 -159 c9 -93 8 -99 -14 -99 -18 0 -20 7 -20 80 0 61 3 80 14
80 9 0 15 -20 20 -61z m34 -425 c0 -15 -4 -22 -10 -16 -5 5 -6 16 -2 25 9 23
12 21 12 -9z"/>
<path d="M14985 1570 c15 -25 41 -64 57 -87 16 -24 25 -43 21 -43 -4 0 -1 -6
7 -13 26 -21 78 -102 95 -148 9 -24 21 -52 26 -62 21 -39 39 -173 39 -290 0
-270 -85 -563 -240 -834 -28 -47 -50 -87 -50 -89 0 -2 80 -4 179 -4 l178 0 36
78 c69 152 127 410 127 567 0 104 -34 278 -74 382 -33 88 -63 136 -235 381
-52 75 -102 129 -170 187 -23 19 -22 18 4 -25z"/>
<path d="M13785 1193 c-6 -40 -34 -167 -76 -343 -5 -19 -14 -60 -21 -90 -7
-30 -16 -59 -19 -65 -3 -5 -12 -38 -19 -72 -8 -34 -18 -61 -24 -60 -6 1 -12
-15 -13 -35 -1 -20 -11 -57 -23 -82 -11 -25 -20 -53 -20 -63 0 -14 -2 -15 -9
-4 -7 11 -11 10 -20 -7 -7 -14 -8 -21 0 -24 12 -4 1 -38 -12 -38 -4 0 -6 7 -3
15 11 27 -4 16 -20 -15 -14 -30 -14 -30 12 -25 15 3 21 2 14 -1 -6 -3 -10 -9
-8 -13 3 -4 -5 -7 -17 -7 -18 1 -23 -5 -25 -31 -2 -18 -7 -33 -11 -33 -5 0
-11 -14 -15 -32 -3 -17 -12 -39 -19 -47 -8 -9 -19 -34 -26 -56 -7 -22 -15 -46
-17 -52 -4 -10 9 -13 48 -13 l53 0 72 218 c40 119 86 271 102 338 56 224 139
670 127 681 -2 3 -7 -17 -11 -44z"/>
<path d="M2132 934 c-103 -106 -282 -344 -333 -444 -26 -51 -53 -123 -63 -167
-20 -87 -32 -257 -22 -297 l6 -26 194 0 194 0 -28 90 c-58 184 -76 411 -44
566 17 82 43 137 127 262 27 40 46 76 43 80 -4 3 -37 -25 -74 -64z"/>
</g>
</svg>
